<?xml version="1.0" encoding="UTF-8"?>
<svg xmlns="http://www.w3.org/2000/svg" xmlns:xlink="http://www.w3.org/1999/xlink" width="128pt" height="128pt" viewBox="0 0 128 128" version="1.1">
<g id="surface148">
<path style=" stroke:none;fill-rule:evenodd;fill:rgb(0%,0%,0%);fill-opacity:1;" d="M 128 64 C 128 12.800781 115.199219 0 64 0 C 12.800781 0 0 12.800781 0 64 C 0 115.199219 12.800781 128 64 128 C 115.199219 128 128 115.199219 128 64 Z M 128 64 "/>
<path style=" stroke:none;fill-rule:evenodd;fill:rgb(99.998474%,99.998474%,99.998474%);fill-opacity:1;" d="M 50.285156 85.527344 L 50.285156 43.382813 C 50.285156 40.332031 49.621094 38.804688 45.710938 38.804688 L 42.171875 38.804688 C 38.558594 38.804688 37.597656 40.042969 37.597656 43.382813 L 37.597656 87.816406 C 37.597656 90.203125 37.597656 94.015625 31.886719 94.015625 C 30.160156 94.015625 27.972656 93.640625 25.875 92.300781 C 25.6875 92.203125 25.296875 91.914063 24.921875 91.914063 C 24.160156 91.914063 24.0625 92.015625 23.199219 94.488281 C 22.824219 95.453125 22.148438 97.265625 22.148438 97.539063 C 22.148438 99.351563 30.074219 102.027344 36.074219 102.027344 C 46.558594 102.027344 50.285156 94.964844 50.285156 85.527344 Z M 50.285156 24.695313 L 50.285156 22.882813 C 50.285156 19.832031 49.621094 18.308594 45.710938 18.308594 L 40.847656 18.308594 C 37.222656 18.308594 36.261719 19.546875 36.261719 22.882813 L 36.261719 24.695313 C 36.261719 27.457031 36.746094 29.269531 40.847656 29.269531 L 45.710938 29.269531 C 49.710938 29.269531 50.285156 27.558594 50.285156 24.695313 Z M 50.285156 24.695313 "/>
<path style=" stroke:none;fill-rule:evenodd;fill:rgb(99.998474%,99.998474%,99.998474%);fill-opacity:1;" d="M 106.65625 47.667969 C 107.042969 46.144531 107.042969 45.582031 107.042969 45.195313 C 107.042969 42.144531 104.566406 40.996094 102.554688 40.996094 C 100.65625 40.996094 98.929688 41.855469 97.691406 43.28125 C 96.355469 41.855469 93.21875 39.382813 87.59375 39.382813 C 70.707031 39.382813 60.796875 54.441406 60.796875 66.929688 C 60.796875 78.191406 69.28125 82.476563 77.480469 82.476563 C 82.445313 82.476563 86.257813 80.566406 87.96875 79.515625 L 86.15625 86.679688 C 85.492188 89.441406 84.820313 92.300781 81.480469 94.964844 C 77.480469 98.300781 74.332031 98.300781 71.757813 98.300781 C 69.46875 98.300781 67.757813 98.300781 65.269531 97.925781 C 68.046875 95.925781 68.234375 92.777344 68.234375 92.390625 C 68.234375 90.300781 66.609375 88.003906 63.457031 88.003906 C 60.320313 88.003906 56.695313 90.675781 56.695313 95.066406 C 56.695313 101.363281 65.082031 101.738281 71.855469 101.738281 C 80.433594 101.738281 93.59375 99.738281 96.457031 88.289063 Z M 89.96875 71.703125 C 89.59375 73.042969 89.59375 73.417969 88.445313 74.464844 C 83.394531 79.039063 78.90625 79.039063 78.058594 79.039063 C 74.332031 79.039063 71.570313 76.953125 71.570313 71.890625 C 71.570313 67.316406 74.71875 55.867188 76.144531 52.34375 C 79.480469 44.144531 84.917969 42.804688 87.78125 42.804688 C 93.691406 42.804688 95.792969 47.480469 95.792969 48.15625 C 95.792969 48.15625 95.792969 48.53125 95.503906 49.582031 Z M 89.96875 71.703125 "/>
</g>
</svg>
